<svg xmlns="http://www.w3.org/2000/svg" width="165" height="165" viewBox="0 0 165 165">
  <g id="select-your-product" transform="translate(-24.552 -24.552)">
    <path id="Path_379" data-name="Path 379" d="M189.552,107.052a82.5,82.5,0,1,1-82.5-82.5A82.5,82.5,0,0,1,189.552,107.052Z" transform="translate(0 0)" fill="#fdcf4f"/>
    <g id="Group_344" data-name="Group 344" transform="translate(51.529 79.894)">
      <path id="Path_380" data-name="Path 380" d="M176.255,107.488,152.31,75.453l-13.387,4.811c-.5-.008-15.214-1.1-15.716-1.1C116.1,79.162,98.084,56.8,91.5,58.484l-38.871,20.4c-5.48,9.13-9.979,6.113-11.58,17.093l15.173,32.609,28.885,38.645a82.539,82.539,0,0,0,91.149-59.746Z" transform="translate(-41.048 -58.393)" fill="#fcac38"/>
    </g>
    <g id="Group_353" data-name="Group 353" transform="translate(43.568 58.891)">
      <g id="Group_348" data-name="Group 348" transform="translate(0)">
        <path id="Path_381" data-name="Path 381" d="M142.395,83.861a2.175,2.175,0,0,1-.772,2.968L61.939,133.71a2.176,2.176,0,0,1-2.968-.769L37.893,97.112a2.174,2.174,0,0,1,.77-2.97l79.682-46.879a2.176,2.176,0,0,1,2.97.769Z" transform="translate(-35.281 -44.65)" fill="#7dad85"/>
        <g id="Group_347" data-name="Group 347">
          <path id="Path_382" data-name="Path 382" d="M61,134.539a2.561,2.561,0,0,1-2.206-1.256L37.71,97.455a2.556,2.556,0,0,1,.909-3.493L118.3,47.083a2.555,2.555,0,0,1,3.495.906l21.078,35.829a2.555,2.555,0,0,1-.906,3.491L62.286,134.188A2.544,2.544,0,0,1,61,134.539ZM119.589,47.5a1.767,1.767,0,0,0-.9.245L39.007,94.622a1.787,1.787,0,0,0-.635,2.445l21.08,35.827a1.836,1.836,0,0,0,2.445.634L141.578,86.65a1.793,1.793,0,0,0,.636-2.445L121.132,48.376A1.8,1.8,0,0,0,119.589,47.5Z" transform="translate(-35.43 -44.8)" fill="#19752d"/>
          <path id="Path_383" data-name="Path 383" d="M61.358,137.221a3.006,3.006,0,0,1-2.584-1.475l-22.18-37.7a3,3,0,0,1,1.063-4.1l81.55-47.981a3,3,0,0,1,4.1,1.065l22.179,37.7a3,3,0,0,1-1.065,4.1l-81.55,47.981A3,3,0,0,1,61.358,137.221Zm-21.047-40.4L61.649,133.09l80.122-47.139-21.336-36.27Z" transform="translate(-36.18 -45.55)" fill="#2b7f2f"/>
          <g id="Group_345" data-name="Group 345" transform="translate(2.314 2.315)">
            <path id="Path_384" data-name="Path 384" d="M49.069,72.071,38.66,78.192a2.18,2.18,0,0,0-.769,2.97l5.145,8.744C51.6,83.5,49.592,74.02,49.069,72.071Z" transform="translate(-37.595 -31.015)" fill="#2b7f2f"/>
            <path id="Path_385" data-name="Path 385" d="M99.254,56.762l-5.137-8.729a2.173,2.173,0,0,0-2.967-.769L80.4,53.589C82.626,55.581,89.848,60.93,99.254,56.762Z" transform="translate(-10.4 -46.966)" fill="#2b7f2f"/>
            <path id="Path_386" data-name="Path 386" d="M47.386,94.687l5.367,9.122a2.171,2.171,0,0,0,2.965.769l11.474-6.749C65.439,96.163,57.648,89.67,47.386,94.687Z" transform="translate(-31.374 -17.833)" fill="#2b7f2f"/>
            <path id="Path_387" data-name="Path 387" d="M106.465,72.83l-5-8.5c-9.32,6.191-7.29,15.943-6.756,17.936L105.694,75.8A2.175,2.175,0,0,0,106.465,72.83Z" transform="translate(-1.665 -35.935)" fill="#2b7f2f"/>
          </g>
          <path id="Path_388" data-name="Path 388" d="M91.18,71.347a16.833,16.833,0,1,1-23.045-5.974A16.832,16.832,0,0,1,91.18,71.347Z" transform="translate(-21.151 -34.434)" fill="#2b7f2f"/>
          <g id="Group_346" data-name="Group 346" transform="translate(46.632 33.852)">
            <path id="Path_389" data-name="Path 389" d="M73.158,88.381A5.229,5.229,0,0,1,69.9,85.493l-.389-.7,4.666-2.579.273.492a2.561,2.561,0,0,0,1.33,1.364,1.806,1.806,0,0,0,1.411-.2,1.609,1.609,0,0,0,.88-1.128,2.3,2.3,0,0,0-1.59-2.507,5.841,5.841,0,0,0-1.894-.121c-.7.061-1.447.146-2.242.258a8.931,8.931,0,0,1-2.371.025,5.612,5.612,0,0,1-2.281-.821,5.95,5.95,0,0,1-1.976-2.257q-2.676-4.845,1.635-8.245l-.832-1.5,2.386-1.316.831,1.5a6.406,6.406,0,0,1,4.625-.51,6.682,6.682,0,0,1,3.364,3.334L73.22,73.069,73,72.682a2.96,2.96,0,0,0-1.091-1.174,1.271,1.271,0,0,0-1.357-.011,1.485,1.485,0,0,0-.86,1.137,2.156,2.156,0,0,0,.244,1.3,2.085,2.085,0,0,0,1.374,1.1,6.01,6.01,0,0,0,1.958.083c.726-.074,1.491-.178,2.294-.319a8.552,8.552,0,0,1,2.427-.072,5.714,5.714,0,0,1,2.366.823,6.11,6.11,0,0,1,2.075,2.373A5.786,5.786,0,0,1,83.22,82.6a7.819,7.819,0,0,1-3.181,3.786l1.289,2.334-2.386,1.318L77.655,87.7A7.476,7.476,0,0,1,73.158,88.381Z" transform="translate(-64.695 -66.25)" fill="#fff"/>
          </g>
        </g>
      </g>
      <g id="Group_352" data-name="Group 352" transform="translate(19.317 36.982)">
        <path id="Path_390" data-name="Path 390" d="M148.164,112.921a2.176,2.176,0,0,1-2.044,2.288l-92.3,5.171a2.171,2.171,0,0,1-2.286-2.043L49.2,76.832a2.175,2.175,0,0,1,2.044-2.285l92.307-5.174a2.178,2.178,0,0,1,2.286,2.044Z" transform="translate(-47.226 -67.398)" fill="#92c685"/>
        <g id="Group_351" data-name="Group 351">
          <path id="Path_391" data-name="Path 391" d="M53.84,120.915a2.552,2.552,0,0,1-2.546-2.407L48.969,77a2.554,2.554,0,0,1,2.406-2.692l92.3-5.173a2.529,2.529,0,0,1,2.69,2.4l2.325,41.505a2.557,2.557,0,0,1-2.4,2.69l-92.3,5.173C53.938,120.915,53.889,120.915,53.84,120.915ZM143.82,69.9l-.1,0-92.3,5.174a1.789,1.789,0,0,0-1.686,1.884l2.325,41.5a1.789,1.789,0,0,0,1.783,1.686l.1,0,92.3-5.173a1.789,1.789,0,0,0,1.683-1.886L145.6,71.586A1.786,1.786,0,0,0,143.82,69.9Z" transform="translate(-47.375 -67.547)" fill="#19752d"/>
          <path id="Path_392" data-name="Path 392" d="M53.439,123.123a3,3,0,0,1-2.993-2.829L48,76.624a3.009,3.009,0,0,1,2.828-3.161l94.638-5.3a3,3,0,0,1,2.991,2.829l2.45,43.67a3,3,0,0,1-2.827,3.159ZM51.864,77.237l2.357,42.015,92.814-5.2-2.357-42.015Z" transform="translate(-47.992 -68.164)" fill="#19752d"/>
          <g id="Group_349" data-name="Group 349" transform="translate(1.972 1.972)">
            <path id="Path_393" data-name="Path 393" d="M63.3,72.122,51.245,72.8A2.175,2.175,0,0,0,49.2,75.084l.569,10.129C60.313,83.443,62.876,74.1,63.3,72.122Z" transform="translate(-49.198 -67.621)" fill="#19752d"/>
            <path id="Path_394" data-name="Path 394" d="M114.587,81.529l-.566-10.111a2.178,2.178,0,0,0-2.286-2.044l-12.458.7C100.348,72.863,104.316,80.927,114.587,81.529Z" transform="translate(-17.38 -69.37)" fill="#19752d"/>
            <path id="Path_395" data-name="Path 395" d="M50.262,92.854l.592,10.563a2.171,2.171,0,0,0,2.286,2.043l13.287-.744C65.633,102.432,61.682,93.091,50.262,92.854Z" transform="translate(-48.522 -54.449)" fill="#19752d"/>
            <path id="Path_396" data-name="Path 396" d="M115.454,99.826,114.9,89.98c-11.122,1.233-13.783,10.829-14.219,12.846l12.728-.711A2.176,2.176,0,0,0,115.454,99.826Z" transform="translate(-16.488 -56.275)" fill="#19752d"/>
          </g>
          <path id="Path_397" data-name="Path 397" d="M103.27,90.539A16.832,16.832,0,1,1,85.525,74.674,16.828,16.828,0,0,1,103.27,90.539Z" transform="translate(-34.244 -64.045)" fill="#19752d"/>
          <g id="Group_350" data-name="Group 350" transform="translate(45.423 14.986)">
            <path id="Path_398" data-name="Path 398" d="M77.361,98.944a5.225,5.225,0,0,1-1.572-4.056l-.021-.8,5.326-.154.018.563a2.571,2.571,0,0,0,.556,1.819,1.809,1.809,0,0,0,1.346.466,1.606,1.606,0,0,0,1.3-.6,2.287,2.287,0,0,0-.265-2.955,5.759,5.759,0,0,0-1.627-.975q-.974-.4-2.113-.8a8.967,8.967,0,0,1-2.119-1.063,5.637,5.637,0,0,1-1.652-1.774,5.954,5.954,0,0,1-.721-2.911q-.159-5.534,5.23-6.582L81,77.407l2.724-.079.047,1.715a6.388,6.388,0,0,1,4.345,1.666,6.671,6.671,0,0,1,1.467,4.505l-5.153.15-.013-.446a3.043,3.043,0,0,0-.43-1.542,1.275,1.275,0,0,0-1.2-.631,1.493,1.493,0,0,0-1.287.617,2.1,2.1,0,0,0-.379,1.267,2.067,2.067,0,0,0,.716,1.611,6.047,6.047,0,0,0,1.7.971q1.02.4,2.188.765a8.7,8.7,0,0,1,2.19,1.048,5.781,5.781,0,0,1,1.727,1.815A6.156,6.156,0,0,1,90.4,93.9a5.809,5.809,0,0,1-1.441,4.515,7.868,7.868,0,0,1-4.566,1.912l.08,2.664-2.723.077-.08-2.664A7.454,7.454,0,0,1,77.361,98.944Z" transform="translate(-75.768 -77.328)" fill="#fff"/>
          </g>
        </g>
      </g>
    </g>
  </g>
</svg>
